<?xml version="1.0" encoding="UTF-8" standalone="no"?>
<!-- Created with Inkscape (http://www.inkscape.org/) -->

<svg
   xmlns:dc="http://purl.org/dc/elements/1.1/"
   xmlns:cc="http://creativecommons.org/ns#"
   xmlns:rdf="http://www.w3.org/1999/02/22-rdf-syntax-ns#"
   xmlns:svg="http://www.w3.org/2000/svg"
   xmlns="http://www.w3.org/2000/svg"
   xmlns:sodipodi="http://sodipodi.sourceforge.net/DTD/sodipodi-0.dtd"
   xmlns:inkscape="http://www.inkscape.org/namespaces/inkscape"
   width="421.65891"
   height="424.14746"
   id="svg2"
   version="1.1"
   inkscape:version="0.48.0 r9654"
   sodipodi:docname="3410~1.SVG">
  <defs
     id="defs4" />
  <sodipodi:namedview
     id="base"
     pagecolor="#ffffff"
     bordercolor="#666666"
     borderopacity="1.0"
     inkscape:pageopacity="0.0"
     inkscape:pageshadow="2"
     inkscape:zoom="0.35"
     inkscape:cx="-165.1059"
     inkscape:cy="-188.60284"
     inkscape:document-units="px"
     inkscape:current-layer="layer1"
     showgrid="false"
     inkscape:window-width="1920"
     inkscape:window-height="1031"
     inkscape:window-x="-4"
     inkscape:window-y="-4"
     inkscape:window-maximized="1"
     inkscape:object-paths="true"
     inkscape:snap-intersection-paths="true"
     fit-margin-top="0"
     fit-margin-left="0"
     fit-margin-right="0"
     fit-margin-bottom="0" />
  <metadata
     id="metadata7">
    <rdf:RDF>
      <cc:Work
         rdf:about="">
        <dc:format>image/svg+xml</dc:format>
        <dc:type
           rdf:resource="http://purl.org/dc/dcmitype/StillImage" />
        <dc:title />
      </cc:Work>
    </rdf:RDF>
  </metadata>
  <g
     inkscape:label="Layer 1"
     inkscape:groupmode="layer"
     id="layer1"
     transform="translate(-748.5625,-146.95213)">
    <path
       style="fill:#000000;stroke:none"
       d="M 1003.5625,311.90625 892.46875,370 c 0,0 -6.85323,14.72055 -11.625,21.21875 -7.18863,9.7891 -16.93468,17.3977 -25.25,26.25 -13.2979,14.1564 -22.99424,32.5508 -39.40625,42.9375 -6.25468,3.9585 -15.23822,2.2009 -21.21875,6.5625 -8.9485,11.1275 -13.9456,22.2179 -16.5625,32.75 -1.02755,2.4414 -7.59073,17.86845 -13.21875,24.84375 -4.53056,5.61515 -11.06247,9.2443 -16.625,13.875 l 0,32.65625 400.25,0 c 5.157,-22.8275 21.647,-59.11645 21.4063,-82.84375 -0.4665,-31.0201 -2.1314,-67.2575 -42.6876,-67.1875 -26.4448,-1.5417 -57.8433,2.81905 -75.4687,-17.71875 l 0.5,-9.09375 c -20.5001,-27.7968 -37.3381,-49.13495 -49,-82.34375 z"
       id="path3965"
       inkscape:connector-curvature="0" />
    <path
       sodipodi:nodetypes="ccsccccccccccccccccc"
       inkscape:connector-curvature="0"
       id="path3967"
       d="m 990.45083,320.50108 -107.5625,52.5312 c -2.10564,3.41 -7.33573,5.7729 -9.625,9.0938 -7.48559,10.8586 -13.17565,22.2066 -24.75,31.8125 26.4878,-11.6484 35.15009,-15.3698 63.15625,-14.125 -35.64995,-0.963 -45.09429,18.9025 -55.0625,33.3125 l 1,24.75 c -16.52865,13.6125 -20.35027,23.0422 -22.71875,42.9375 -9.66152,19.7422 -11.69759,49.7203 -14.77679,70.286 l 78.65625,0 11.87054,-56.6297 20.21875,30.7812 14.47321,25.8485 32.71875,0 c -2.6089,-27.2355 -8.82966,-62.5952 -17.91071,-88.9735 7.79763,-13.1382 1.71426,-14.5148 -5.53125,-28.2812 9.42918,-5.9774 23.1031,-14.0702 37.875,-22.7188 -1.4623,-19.1834 -6.07329,-28.8974 -10.09375,-40.4062 l 9.0625,2 c 9.01637,-28.489 11.57327,-47.0722 -1,-72.2188 z"
       style="fill:#ececec;stroke:none" />
    <path
       style="fill:#ffffff;stroke:none"
       d="m 892.00887,196.41361 c 0,0 8.05079,9.45737 13.57142,11.78571 3.96257,1.67122 9.29599,-1.3396 12.85715,1.07143 3.30645,2.23858 5.35714,10.71429 5.35714,10.71429 l -1.07143,-12.85715 c 0,0 9.9672,-0.37407 14.64286,1.07143 5.65717,1.74894 12.00373,4.04831 15.35714,8.92857 2.11702,3.08093 1.78572,11.07143 1.78572,11.07143 l 5,-9.28571 c 0,0 6.98802,14.47753 6.42857,22.14286 -0.43819,6.00389 -8.33599,10.46704 -7.5,16.42857 1.04363,7.44228 13.00043,9.80942 14.64285,17.14285 1.1866,5.29819 -4.59571,10.29379 -4.28571,15.71429 0.29283,5.1204 0.90658,12.4997 5.71429,14.2857 6.53861,2.429 18.57142,-9.6428 18.57142,-9.6428 l 7.50001,5.7142 c -4.06651,13.3207 0.5036,13.1655 -11.42858,17.1429 0,0 -2.74241,16.7666 -6.42857,24.2857 -3.36445,6.8629 -8.4865,12.8475 -13.92857,18.2143 -11.08721,10.9338 -23.03058,22.103 -37.5,27.8571 -6.57243,2.6138 -14.78684,5.7454 -21.07143,2.5 -1.32538,-0.6844 -2.14286,-3.9285 -2.14286,-3.9285 0,0 -0.54422,4.0515 -2.14285,4.6428 -5.89544,2.1809 -12.22001,-3.9484 -17.14286,-7.8571 -6.24732,-4.9603 -10.52428,-12.097 -14.64286,-18.9286 -3.71339,-6.1595 -6.0906,-13.0341 -8.92857,-19.6428 -2.12841,-4.9564 -4.152,-9.959 -6.07143,-15 -1.25952,-3.3079 -2.72856,-9.7083 -3.21429,-13.2143 -0.9661,-6.9734 1.41434,-10.8256 1.07144,-17.8572 -0.31744,-6.5095 -2.67674,-12.7906 -3.21429,-19.2857 -0.29457,-3.55925 0.42289,-7.16797 0,-10.71427 -0.89918,-7.54047 -5.61007,-14.55318 -5.35714,-22.14286 0.21194,-6.35967 5.71428,-18.21428 5.71428,-18.21428 0,0 6.42857,2.14285 8.57143,0.35714 2.14286,-1.78572 11.09946,-10.7502 17.5,-15 3.77002,-2.5032 9.82415,-2.18522 12.14286,-6.07143 1.95288,-3.27306 -0.35714,-11.42857 -0.35714,-11.42857 z"
       id="path3969"
       inkscape:connector-curvature="0"
       sodipodi:nodetypes="cssccssccssssscccsssscsssssssssscsssc" />
    <path
       id="path3971"
       d="m 890.91958,146.96983 c -8.76174,0.17906 -18.53015,1.58399 -21.0625,5.15625 -3.43313,4.84291 -7.45112,9.54093 -0.71875,17.15625 0,0 -11.95591,3.05711 -17.5,5.6875 -6.77261,3.21326 -14.5406,6.06245 -18.90625,12.15625 -8.07134,11.26638 -10.68613,26.50153 -10,40.34375 0.3691,7.44632 7.5,21.09375 7.5,21.09375 -5.89398,7.17528 -11.46171,13.79049 -19.65625,18.5625 4.78402,1.59916 5.10392,3.90125 15.375,4.65625 -2.67134,13.69065 -3.36329,20.69525 0,34.99995 -0.62457,3.395 -8.78484,5.3683 -14.3125,7.8438 7.09851,1.4615 13.25029,3.3701 20.375,1.0625 -1.38914,19.448 7.12703,20.8918 24.28125,29.2813 -1.84279,-11.4256 -2.03642,-11.9502 2.8125,-15.125 0.014,0.0371 0.0173,0.0884 0.0312,0.125 1.91943,5.0407 3.96534,10.0435 6.09375,15 2.83797,6.6085 5.19286,13.4967 8.90625,19.6562 4.11858,6.8316 8.40893,13.9772 14.65625,18.9375 4.92285,3.9087 11.26081,10.0249 17.15625,7.8437 1.59863,-0.5911 2.125,-4.625 2.125,-4.625 0,0 0.83087,3.2219 2.15625,3.9063 3.77664,1.9503 8.22968,1.5967 12.625,0.4375 -0.005,-0.008 -0.0937,-0.1562 -0.0937,-0.1562 0,-3e-4 -7.58783,-3.5179 -9.84375,-6.8126 -1.22274,-1.7855 -1.5,-6.3124 -1.5,-6.3124 0,0 -3.83751,7.8386 -7.59375,8.8124 -2.34612,0.6087 -5.21714,-0.6752 -6.8125,-2.5 -2.78292,-3.1822 -3.553,-8.2184 -2.78125,-12.375 0.60949,-3.2823 2.76307,-6.5245 5.5625,-8.3437 2.50647,-1.6289 5.89924,-1.0159 8.84375,-1.5313 4.41453,-0.7722 12.14211,-2.1496 13.21875,-2.3437 -1.63275,0.2693 -5.06221,0.7237 -6.90625,0.0937 -2.37654,-0.8114 -5.8125,-4.8124 -5.8125,-4.8124 0,-3e-4 -3.94533,1.8651 -6.0625,2.2812 -2.80958,0.5523 -6.20529,1.8292 -8.59375,0.25 -1.73427,-1.1467 -2.25,-5.8125 -2.25,-5.8125 3.17321,-1.5866 5.39311,-2.84 9.0625,-2.2813 l 5.3125,-1.25 c 8.07827,0.1649 16.0287,0.4664 24,-1.25 0,0 7.3336,4.0263 8.34375,4.5313 1.01016,0.5051 -8.59375,-8.0937 -8.59375,-8.0937 l -0.5,1.2812 c -8.03192,0.6062 -15.969,1.462 -24,0.25 -3.55666,1.455 -5.36722,3.0958 -8.59375,0.5 -3.43953,2.293 -7.05583,3.7207 -11.09375,4.8125 0,0 2.4086,2.0648 1.75,3.0313 -2.35992,3.4626 0.1605,8.5146 -2.78125,10.0937 -1.66674,0.8947 -3.9263,-0.711 -5.28125,-2.0313 -5.8672,-5.7159 -8.91419,-14.5386 -9.34375,-22.7187 -0.26681,-5.0808 4.28125,-14.6563 4.28125,-14.6563 0,3e-4 -5.19691,5.8678 -8.34375,5.0626 -3.58081,-0.9167 -3.82067,-6.3337 -5.5625,-9.5938 -1.45541,-2.724 -3.33239,-6.5983 -4.875,-9.8125 0.44269,-3.2726 1.20445,-6.3385 1,-10.5313 -0.01,-0.1984 -0.0491,-0.3956 -0.0625,-0.5937 0.43243,1.2422 1.02373,2.4239 1.65625,3.4687 6.66954,9.2477 11.63563,5.8803 19,-2.4062 -6.87112,0.3379 -16.37156,4.1539 -16.5,-0.5625 -0.70062,-1.1079 1.18286,-1.9953 1.4375,-3.2813 0.30722,-1.5513 1.23084,-1.721 2.3125,-2.875 0.34235,-0.365 0.76582,-0.6269 1.21875,-0.8437 -0.0844,0.3031 -0.125,0.6133 -0.125,0.9375 0,2.3176 2.25177,4.1875 5.0625,4.1875 2.81073,0 5.09375,-1.8699 5.09375,-4.1875 0,-1.3916 -0.82878,-2.6115 -2.09375,-3.375 1.24063,-0.2566 2.49561,-0.3502 3.71875,-0.0938 2.18124,0.4579 4.06244,2.0739 5.53125,3.75 1.66659,1.9022 2.77842,4.3238 3.375,6.7813 1.10941,4.57 0.64934,9.414 0.1875,14.0937 -0.47809,4.845 -2.29546,9.469 -3.03125,14.2813 -0.47893,3.1324 -2.89306,7.0004 -0.90625,9.4687 1.54151,1.9156 5.01276,1.688 7.34375,0.9063 2.35478,-0.7896 3.04119,-4.2565 5.34375,-5.1875 0.71739,-0.29 1.54287,0.08 2.3125,0 3.90791,-0.4075 5.02273,-4.037 7.34375,-5 1.65762,-0.6877 3.55804,0.3529 5.34375,0.5312 0.73262,0.0731 6.4375,-3.375 6.4375,-3.375 -5.8601,1 -9.55606,1.029 -13.125,0.25 l -0.28125,2.7813 c 0,0 -3.99201,3.5808 -6.40625,3.375 -1.94547,-0.1658 -4.65625,-3.5625 -4.65625,-3.5625 0,0 -2.3103,2.4957 -3.5625,1.9688 -2.04973,-0.8633 -1.77825,-4.2135 -1.78125,-6.4376 -0.005,-3.1476 2.05697,-5.977 2.5,-9.0937 0.57807,-4.0667 0.51011,-8.2515 0.15625,-12.3437 -0.63569,-7.3518 0.91633,-15.4883 1.625,-17.125 0.47534,-1.098 -1.47103,-2.7115 -2.28125,-3.3126 0.40476,-0.1562 0.65625,-0.2499 0.65625,-0.25 0,0 -8.32421,-4.15208 -12.84375,-4.99995 -2.57415,-0.48291 -5.20502,-0.70335 -7.84375,-0.6875 -2.63873,0.0159 -5.28977,0.26797 -7.875,0.6875 -2.2296,0.36182 -5.82763,-0.0498 -6.4375,2.12495 -0.54738,1.9521 2.02535,3.9827 3.9375,4.6563 3.54544,1.2489 7.30423,-2.0842 11.0625,-2.1563 4.69661,-0.09 9.25047,2.4694 13.9375,2.1563 1.39192,-0.093 3.50901,-0.8145 4.84375,-1.3125 -0.2476,0.7218 -0.76525,2.0779 -1.4375,2.5625 -2.93726,2.1171 -7.12518,1.3387 -10.71875,1.7813 -4.44499,0.5471 -9.14135,-0.3043 -13.40625,1.0624 -2.31366,0.7415 -5.23758,1.5417 -6.25,3.75 -0.27372,0.5972 -0.44402,1.2215 -0.53125,1.875 -0.83691,-4.5486 -2.11867,-9.0487 -2.5,-13.6562 -0.29457,-3.55925 0.42289,-7.17245 0,-10.71875 -0.89918,-7.54047 -5.59668,-14.53532 -5.34375,-22.125 0.21194,-6.35967 5.6875,-18.21875 5.6875,-18.21875 0,0 6.45089,2.12946 8.59375,0.34375 2.14286,-1.78572 11.09946,-10.7502 17.5,-15 3.77002,-2.5032 9.80629,-2.17629 12.125,-6.0625 1.95288,-3.27306 -0.34375,-11.4375 -0.34375,-11.4375 0,0 8.04187,9.45291 13.5625,11.78125 3.96257,1.67122 9.31384,-1.31728 12.875,1.09375 3.30645,2.23858 5.34375,10.6875 5.34375,10.6875 l -1.0625,-12.84375 c 0,0 9.94934,-0.383 14.625,1.0625 5.65717,1.74894 12.02159,4.05724 15.375,8.9375 2.11702,3.08093 1.78125,11.0625 1.78125,11.0625 l 5,-9.28125 c 0,0 6.99695,14.49092 6.4375,22.15625 -0.43819,6.00389 -8.33599,10.44472 -7.5,16.40625 1.04363,7.44228 12.98258,9.82282 14.625,17.15625 1.1866,5.2982 -4.59125,10.2982 -4.28125,15.7188 0.29283,5.1204 0.91104,12.4952 5.71875,14.2812 6.53861,2.429 18.5625,-9.6564 18.5625,-9.6562 l 7.49997,5.7187 c -4.06647,13.3207 0.4947,13.1787 -11.43747,17.1563 0,0 -0.58483,3.559 -1.5625,8.0937 4.32845,8.0152 8.9231,15.7434 20.15627,11.5313 0,0 15.1941,-2.2466 20,-7.5 3.9185,-4.2837 1.3539,-11.9852 4.625,-16.7813 3.6893,-5.4092 12.6965,-5.9729 15.7187,-11.7813 1.7043,-3.2753 0.4495,-7.3709 0.375,-11.0624 -0.1324,-6.5636 0.4296,-13.36248 -1.4375,-19.6563 -2.2428,-7.5603 -11.4375,-20.71875 -11.4375,-20.71875 0,0 3.3659,-15.10356 1.0625,-22.125 -3.0599,-9.32784 -12.7996,-14.92758 -18.5625,-22.875 -3.7413,-5.15953 -7.4876,-10.36508 -10.3437,-16.0625 -3.3594,-6.70134 -2.0227,-16.37806 -7.87502,-21.0625 -6.84801,-5.48145 -26.0625,-3.5625 -26.0625,-3.5625 0,0 -9.07627,-9.64774 -15,-12.15625 -7.28811,-3.08628 -15.64956,-3.00827 -23.5625,-2.84375 -6.63327,0.13791 -13.03795,3.65382 -19.65625,3.1875 -5.972,-0.42078 -11.15077,-4.95596 -17.125,-5.34375 -1.20603,-0.0783 -2.51818,-0.13169 -3.875,-0.15625 -1.18721,-0.0215 -2.40457,-0.0256 -3.65625,0 z m 40.03125,118.71875 c -5.63041,0.0452 -11.27663,1.68606 -16.4375,3.9375 -4.72109,2.05959 -13.45074,3.44399 -12.875,8.5625 0.29903,2.6585 4.82931,3.0313 7.5,2.875 3.08309,-0.1804 5.38202,-3.06019 8.21875,-4.28125 3.35432,-1.44385 6.77335,-2.99021 10.375,-3.59375 4.93124,-0.82634 10.15986,-1.25421 15,0 3.55945,0.92235 9.625,5.375 9.625,5.375 0,0 -2.46286,-7.16707 -5.34375,-9.28125 -4.42429,-3.24683 -10.57485,-3.63785 -16.0625,-3.59375 z m 1.4375,12.8125 c -1.13695,0.0349 -2.27803,0.14016 -3.40625,0.21875 -2.99795,0.20885 -6.0882,0.29435 -8.9375,1.25005 -3.13268,1.0502 -8.65625,4.8437 -8.65625,4.8437 0,0 1.35222,4.7108 2.59375,6.4063 2.18499,2.9835 4.77445,4.675 8.46875,4.8437 3.29839,0.1506 8.65625,-3.75 8.65625,-3.75 0,0 -4.64916,-0.4633 -6.96875,-0.7187 -2.02553,-0.223 -4.7331,0.8256 -6.0625,-0.7188 -1.20442,-1.3992 -0.61618,-3.8691 0.1875,-5.5312 0.44126,-0.9126 1.36359,-1.6123 2.3125,-1.9688 0.17301,-0.065 0.35589,-0.1356 0.53125,-0.1875 -0.22729,0.4837 -0.34375,1.0135 -0.34375,1.5625 0,2.4021 2.37113,4.3438 5.3125,4.3438 2.94137,-10e-5 5.34375,-1.9417 5.34375,-4.3438 0,-0.5505 -0.14654,-1.0778 -0.375,-1.5625 0.14474,-0.01 0.2935,0.01 0.4375,0 1.43613,-0.1012 2.88131,-0.867 4.28125,-0.5313 2.16723,0.5201 3.31671,3.4988 5.53125,3.75 3.93207,0.4466 11.0625,-4.2812 11.0625,-4.2812 0,0 -5.89343,0.4046 -8.75,-0.1875 -2.77084,-0.5742 -5.06719,-2.6728 -7.84375,-3.21875 -1.10971,-0.21821 -2.23805,-0.25365 -3.375,-0.21875 z m -3.6875,5.4062 c 0.4438,0 0.8125,0.5153 0.8125,1.1563 0,0.641 -0.3687,1.1562 -0.8125,1.1563 -0.4438,0 -0.8125,-0.5153 -0.8125,-1.1563 0,-0.641 0.3687,-1.1562 0.8125,-1.1563 z m -54.5625,6.7813 c 0.69036,0 1.25,0.5596 1.25,1.25 0,0.6904 -0.55964,1.25 -1.25,1.25 -0.69036,0 -1.25,-0.5596 -1.25,-1.25 0,-0.6904 0.55964,-1.25 1.25,-1.25 z"
       style="fill:#000000;stroke:none"
       inkscape:connector-curvature="0" />
  </g>
</svg>
